<svg xmlns="http://www.w3.org/2000/svg" viewBox="0 0 120 70" width="100%" height="100%">
  <!-- Connected "c" and "m" mark icon -->
  <!-- "c" in Navy -->
  <path d="M42 27.5 C40 23.5 35.5 20.5 29.5 20.5 C19.5 20.5 12 28.5 12 38.5 C12 48.5 19.5 56.5 29.5 56.5 C36 56.5 41.5 52.5 44 46.5" 
        fill="none" stroke="#0A1128" stroke-width="7" stroke-linecap="round" />
  
  <!-- "m" looping seamlessly from c in Electric Blue -->
  <path d="M44 46.5 C46.5 40.5 51 20.5 61.5 20.5 C69 20.5 73.5 26.5 75.5 32.5 C78 24.5 84 20.5 91.5 20.5 C101.5 20.5 106 28 106 38.5 L106 56.5 M75.5 34 L75.5 56.5 M49 33.5 L49 56.5" 
        fill="none" stroke="#0052FF" stroke-width="7" stroke-linecap="round" stroke-linejoin="round" />

  <!-- Triangle Accent -->
  <polygon points="108,18 118,24 108,30" fill="#0052FF" />
</svg>
